<svg xmlns="http://www.w3.org/2000/svg" width="331.999" height="105.34" viewBox="0 0 331.999 105.34">
  <g id="Grupo_155" data-name="Grupo 155" transform="translate(-140 -36.993)">
    <g id="Grupo_145" data-name="Grupo 145" transform="translate(0 16)">
      <path id="Path_1" data-name="Path 1" d="M942.814,475.26l-4.3,5.236a11.845,11.845,0,0,0-8.509-4.254,10.074,10.074,0,0,0,0,20.148,12.628,12.628,0,0,0,8.509-3.833l4.347,4.721a19.16,19.16,0,0,1-13.228,5.843c-9.771,0-17.156-7.246-17.156-16.735,0-9.443,7.526-16.548,17.436-16.548A18.619,18.619,0,0,1,942.814,475.26Z" transform="translate(-654 -414)" fill="#2e2d35"/>
      <path id="Path_2" data-name="Path 2" d="M982.347,486.433c0,9.443-7.573,16.688-17.576,16.688s-17.577-7.2-17.577-16.688c0-9.537,7.573-16.6,17.577-16.6S982.347,476.943,982.347,486.433Zm-27.58,0a10.123,10.123,0,1,0,0-.045Z" transform="translate(-654 -414)" fill="#2e2d35"/>
      <path id="Path_3" data-name="Path 3" d="M1011.5,478.206c0,3.506-2.571,7.2-6.123,10.846l-7.246,7.573h14.491v6.17H988.548v-5.048l11.832-12.529c2.01-2.057,3.412-4.347,3.412-5.937,0-2.057-1.59-3.272-4.3-3.272s-6.031,1.589-8.929,4.113l-2.851-5.516c3.974-3.039,8.32-4.862,12.855-4.862C1006.966,469.745,1011.5,473.064,1011.5,478.206Z" transform="translate(-654 -414)" fill="#2e2d35"/>
      <path id="Path_4" data-name="Path 4" d="M1049.681,502.794l-9.91-29.917-9.957,29.917h-2.057l-11.032-32.675h2.2l9.91,30.338,9.91-30.338h2.056l9.957,30.338,9.863-30.338h2.1l-11.033,32.675Z" transform="translate(-654 -414)" fill="#2e2d35"/>
      <path id="Path_5" data-name="Path 5" d="M1072.527,472.036v13.045h17.015v1.963h-17.015v13.837h19.726V502.8h-21.689V470.119h21.082v1.917Z" transform="translate(-654 -414)" fill="#2e2d35"/>
      <path id="Path_6" data-name="Path 6" d="M1114.173,470.119c6.4,0,10.19,2.992,10.19,8.087a7.176,7.176,0,0,1-6.311,7.526c5,.608,7.947,3.693,7.947,8.274,0,5.564-4.3,8.788-11.734,8.788H1100.8V470.119Zm-11.406,14.818h11.36c5.235,0,8.273-2.337,8.273-6.5,0-4.067-3.038-6.4-8.273-6.4h-11.36Zm0,15.94h11.36c6.311,0,9.909-2.57,9.909-7.105,0-4.394-3.6-6.918-9.909-6.918h-11.36Z" transform="translate(-654 -414)" fill="#2e2d35"/>
      <circle id="Ellipse_1" data-name="Ellipse 1" cx="4.098" cy="4.098" r="4.098" transform="translate(326.021 46.056)" fill="#b5d653"/>
      <circle id="Ellipse_2" data-name="Ellipse 2" cx="7.358" cy="7.358" r="7.358" transform="translate(309.309 35.437)" fill="#79c258"/>
      <circle id="Ellipse_3" data-name="Ellipse 3" cx="4.398" cy="4.398" r="4.398" transform="translate(326.403 34)" fill="#3dad5c"/>
    </g>
    <g id="Grupo_144" data-name="Grupo 144">
      <path id="Path_14" data-name="Path 14" d="M852.037,472.851a31.008,31.008,0,0,1,13.217,5.643h27.9a52.847,52.847,0,0,0-34.7-26.356C851.618,458.368,851.571,468.1,852.037,472.851Z" transform="translate(-654 -414)" fill="#019961"/>
      <path id="Path_15" data-name="Path 15" d="M800.346,478.494h27.9a31.008,31.008,0,0,1,13.217-5.643c.466-4.752.419-14.483-6.422-20.712A52.848,52.848,0,0,0,800.346,478.494Z" transform="translate(-654 -414)" fill="#019961"/>
      <path id="Path_16" data-name="Path 16" d="M877.927,503.577c0,.428-.016.853-.032,1.277h21.577c.01-.426.032-.849.032-1.277a52.469,52.469,0,0,0-6.348-25.078h-27.9A31.109,31.109,0,0,1,877.927,503.577Z" transform="translate(-654 -414)" fill="#3dad5c"/>
      <path id="Path_17" data-name="Path 17" d="M815.574,503.577A31.106,31.106,0,0,1,828.247,478.5h-27.9A52.456,52.456,0,0,0,794,503.577c0,.428.022.851.032,1.277H815.61C815.589,504.425,815.574,504,815.574,503.577Z" transform="translate(-654 -414)" fill="#3dad5c"/>
      <path id="Path_18" data-name="Path 18" d="M837.381,504.849H794.029a52.469,52.469,0,0,0,7.783,26.355h53.249C845.471,526.182,837.844,516.316,837.381,504.849Z" transform="translate(-654 -414)" fill="#79c258"/>
      <path id="Path_19" data-name="Path 19" d="M866.66,504.849c-.462,11.467-13.125,21.333-22.719,26.355h47.748a52.479,52.479,0,0,0,7.783-26.355Z" transform="translate(-654 -414)" fill="#79c258"/>
      <path id="Path_20" data-name="Path 20" d="M863.135,531.2H801.813a52.755,52.755,0,0,0,89.877,0h-30.5" transform="translate(-654 -414)" fill="#b5d653"/>
      <rect id="Rectangle_1" data-name="Rectangle 1" width="79.636" height="26.355" transform="translate(150.259 90.849)" fill="#79c258"/>
      <rect id="Rectangle_2" data-name="Rectangle 2" width="79.636" height="26.355" transform="translate(154.718 64.494)" fill="#3dad5c"/>
      <path id="Trazado_112" data-name="Trazado 112" d="M858.454,452.138s-13.912-2.93-25.723.584c-9.093,2.705-13.227,9.632-12.227,13.632s.484,12.2.484,12.2h52.849" transform="translate(-654 -414)" fill="#019961"/>
      <path id="Trazado_113" data-name="Trazado 113" d="M822.488,525.184l0,.006.013.018c.017.037.035.074.052.112,1.658-7.546,8.584-29.473,33.943-36.8l.182-.058c-.063.018-.12.04-.182.058-2.141.688-24.589,8.708-25.255,41.791,24.25,6.1,28.66-20.456,33.851-36.786a60.767,60.767,0,0,1,5.39-12.6S808.2,480,822.488,525.184Z" transform="translate(-654 -414)" fill="#fff"/>
    </g>
  </g>
</svg>
