<svg id="Capa_1" data-name="Capa 1" xmlns="http://www.w3.org/2000/svg" xmlns:xlink="http://www.w3.org/1999/xlink" viewBox="0 0 224.5 509.38">
  <defs>
    <style>
      .cls-1 {
        fill: url(#Degradado_sin_nombre);
      }
    </style>
    <linearGradient id="Degradado_sin_nombre" data-name="Degradado sin nombre" x1="133.86" y1="409.38" x2="134.23" y2="408.22" gradientTransform="matrix(190.16, 292.82, 375.45, -243.82, -178702.79, 60721.26)" gradientUnits="userSpaceOnUse">
      <stop offset="0" stop-color="#b5d653"/>
      <stop offset="0.99" stop-color="#019961"/>
    </linearGradient>
  </defs>
  <title>flower-right-bottom4</title>
  <path id="Trazado_69" data-name="Trazado 69" class="cls-1" d="M232.89,158.66c4.71-4.08,12.27-3,17.29.67s8.08,9.41,11,14.92c5.73,10.88,13,32.3,15.76,40.68.13-4.55.31-9.09.62-13.64a253.48,253.48,0,0,1,4.73-34.07c1.32-5.58,2.51-11.19,4.22-16.68.65-2.45,1.41-4.87,2.2-7.28-9-5.54-15.43-14.44-21-23.43-4.44-7.12-8.68-15.25-7.17-23.5.56-3.06,2.08-6.15,4.8-7.66,4.3-2.38,9.79,0,13.21,3.56,5.41,5.57,7.67,13.44,9,21.08,1.33,7.37,1.75,21.71,1.88,27.7.77-2.28,1.57-4.55,2.35-6.83a251.88,251.88,0,0,1,21.15-43.82C299.89,80.27,296.56,59.54,306,46A7.35,7.35,0,0,1,309,43.25c3.87-1.66,7.44,3,8.76,7,3.19,9.68-1.21,29.62-3.17,37.47a249.06,249.06,0,0,1,29.68-38.56c2.65-5.61,10-23.8,13-28.5C360,16.17,363.64,12,368.48,9.91s11-1.61,14.65,2.22c5.41,5.74,2.55,15.36-2.38,21.51-6.36,7.95-28.67,14.69-35.43,16.58a247.22,247.22,0,0,0-28.4,37.27c3.67-2.62,17.45-12.44,23.89-16.23,7.47-4.39,17.31-7.06,24.52-2.24,3.37,2.25,5.74,6.82,3.82,10.39-1.55,2.88-5.11,3.89-8.31,4.56a201.73,201.73,0,0,1-44.35,4.19A249.78,249.78,0,0,0,293.92,135c-.84,2.52-1.7,5-2.53,7.56,5.06-5,26.23-25.74,39.19-31.18,6-2.51,14.47-3.33,17.46,2.41,1.59,3,.78,6.91-1.2,9.71s-4.94,4.74-7.92,6.45c-13.41,7.71-32.32,12.71-47.88,13.67-.81,2.52-1.59,5.05-2.25,7.62-1.66,5.44-2.8,11-4.06,16.54a251.29,251.29,0,0,0-4.44,33.73c-.35,5.75-.53,11.5-.6,17.27a104.45,104.45,0,0,1,22.88-40.22c4.54-4.95,9.83-9.6,16.32-11.36s14.37.16,17.79,5.95c3.92,6.64.68,15.3-4.07,21.38-12.23,15.64-32.5,22.3-51.76,27.1l-1.16.19c-.1,16,.51,32,.41,48.1Q280,283.48,279,297.1c6-12.09,25.79-50,43.58-63.29,4.4-3.29,9.64-6.41,15.06-5.49,5.13.88,9.13,5.46,10.3,10.53s-.13,10.47-2.55,15.07c-3,5.69-7.59,10.35-12.2,14.82-15.7,15.2-32.91,29.57-54.48,31.94A383.55,383.55,0,0,1,265.5,374c6.12-11.32,17.51-31.46,26.14-41.31,6.25-7.14,13.25-14,22-17.66,6-2.48,12.49-3.34,18.94-3.61,5.44-.22,11.3.09,15.6,3.42,4.47,3.47,6.23,9.64,5.53,15.26s-3.5,10.76-6.77,15.38a77.9,77.9,0,0,1-57.7,32.26c-5.66.37-18.72,3.69-26.17,4.34q-3.51,11.34-7.77,22.44A322.67,322.67,0,0,1,231,454.36c13-10.83,55.24-45.12,81.39-55.79,10.92-4.46,24.43-7.69,33.68-.37,8.75,6.92,9.12,20.86,3.41,30.44s-15.93,15.53-26.18,19.91c-29.62,12.65-63.26,17.14-94.54,9.55q-2.39,3.85-4.89,7.64a275.09,275.09,0,0,1-44.85,52.34l-3.49-3.9a269.84,269.84,0,0,0,44-50.56l-.53,0-29.88-27.07c-5.24-4.74-10.5-9.51-14.91-15a61.85,61.85,0,0,1-10.71-19.71c-3.93-12.25-2.58-27.77,8-35.11a13.21,13.21,0,0,1,7.81-2.65c4.5.14,8.28,3.36,11.32,6.68,15.37,16.82,21.66,39.8,27.37,61.87,2.5,9.67,5,19.92,2.54,29.54a313.67,313.67,0,0,0,30.79-59.18c1.76-4.45,3.39-8.94,5-13.45-6.79-3.27-32.2-15.66-42.92-23.13C201,357.68,191.13,345,187.11,330.4c-1.43-5.18-2.08-10.89.14-15.79,2.83-6.23,10-9.77,16.83-9.61s13.29,3.49,18.52,7.9c8.11,6.84,13.68,16.15,19.07,25.29,8.19,13.89,16.56,29.06,16.84,44.84a376.5,376.5,0,0,0,16.75-82.94c-10-3.44-20-7-29.16-12.33-9.54-5.59-18.14-13.36-22.87-23.36-2.25-4.74-3.58-10.11-2.56-15.26s4.79-9.95,9.91-11.09c4.89-1.09,9.88,1.19,14.2,3.74,8.41,5,26.94,33.94,31.16,49.64q.73-10.81.91-21.63c.23-17.15-.37-34.38,0-51.64-20.89-3.49-39.72-20-46.42-40.1C228.21,171.51,227.64,163.2,232.89,158.66Z" transform="translate(-161.55 -8.68)"/>
</svg>
